<?xml version="1.0" encoding="utf-8"?>
<!-- Generator: Adobe Illustrator 28.2.0, SVG Export Plug-In . SVG Version: 6.00 Build 0)  -->
<svg version="1.1" id="Layer_1" xmlns="http://www.w3.org/2000/svg" xmlns:xlink="http://www.w3.org/1999/xlink" x="0px" y="0px"
	 viewBox="0 0 207.25 215.58" enable-background="new 0 0 207.25 215.58" xml:space="preserve">
<g>
	<path fill-rule="evenodd" clip-rule="evenodd" fill="#F4BEA7" d="M38.05,109.1c-0.09,0.18-0.18,0.38-0.26,0.55
		c-0.19,0.42-0.38,0.85-0.57,1.27c-0.54,1.21-1.08,2.42-1.61,3.64c-0.76,1.72-1.51,3.44-2.27,5.16c0.08,0.06,0.13,0.15,0.15,0.26
		c0.04,0.15,0.01,0.3-0.09,0.42c-0.35,0.45-0.7,0.92-1.02,1.39c-0.06,0.08-0.12,0.14-0.21,0.17l-1.6,0.67l-1.84,4.03
		c-0.06,0.14-0.17,0.23-0.31,0.27c-0.72,0.2-1.47,0.44-2.15,0.74c-0.24,0.11-0.53,0-0.64-0.25c-0.07-0.14-0.14-0.29-0.22-0.42
		c-0.01-0.01-0.01-0.02-0.02-0.04c-0.44-0.74-1.07-1.3-1.9-1.52c-0.28-0.07-0.56-0.1-0.84-0.08c-1.71,0.08-3.01,1.43-3.79,2.86
		c-0.08,0.15-0.23,0.25-0.41,0.25c-0.04,0-0.08,0-0.12,0.01c-1.52,0.09-3.18,0.57-4.6,1.13c-1.41,0.55-2.96,1.33-4.14,2.3
		c-0.62,0.51-1.71,1.58-1.35,2.5c0.18,0.47,0.65,0.7,1.1,0.82c0.22,0.06,0.37,0.26,0.36,0.5c-0.01,0.23-0.18,0.43-0.4,0.47
		c-0.61,0.11-1.22,0.22-1.83,0.36c-0.35,0.08-0.77,0.18-1.1,0.32c-0.92,0.39-2.22,2.36-2.74,3.2c-0.25,0.41-0.5,0.82-0.74,1.23
		c-0.55,0.96-1.08,1.94-1.56,2.94c-0.25,0.51-0.63,1.27-0.78,1.82c-0.29,1.06,0.5,3.82,0.84,4.89c0.01,0.03,0.02,0.06,0.02,0.09
		c0.08,0.64,0.17,1.28,0.27,1.92c0.08,0.54,0.17,1.24,0.33,1.75c0.15,0.49,0.54,1.17,0.78,1.63c0.16,0.31,0.32,0.62,0.48,0.93
		c0.34,0.67,0.82,1.59,0.99,2.32c0.14,0.59,0.38,1.23,0.58,1.8c0.33,0.92,0.67,1.84,1.03,2.75c0.1,0.26,0.2,0.51,0.31,0.77
		c0.3,0.74,0.61,1.47,0.94,2.19c0.22,0.48,0.47,1.02,0.76,1.47c0.03,0.05,0.05,0.09,0.06,0.15c0.09,0.36,0.18,0.72,0.27,1.09
		c0.02,0.08,0.02,0.14,0,0.22c-0.51,2.46-0.87,5.04-1.12,7.54c-0.45,4.49-0.55,9.15-0.02,13.63c0.08,0.66,0.17,1.31,0.28,1.96
		c0.65,3.87,1.77,8.3,3.8,11.68c1.24,2.07,3.33,4.49,5.97,4.33c1.11-0.07,2.85,0.43,3.92,0.74c1.87,0.54,3.72,1.19,5.55,1.85
		c2.95,1.08,5.89,2.23,8.79,3.44c0.17,0.07,0.28,0.22,0.3,0.39h165.16c0.78-1.66,1.55-3.33,2.27-5.01c0.55-1.27,1.08-2.56,1.55-3.87
		c0.22-0.62,0.65-1.84,0.65-2.5c0-0.7-0.25-1.54-0.49-2.19c-0.03-0.07-0.04-0.14-0.03-0.22c0.22-2.28,0.42-4.58,0.56-6.87
		c0.1-1.55,0.17-3.11,0.17-4.66c0-0.81,0-2.19-0.23-2.97c-0.24-0.79-0.78-1.75-1.2-2.46c-0.68-1.15-1.44-2.28-2.25-3.34
		c-0.63-0.82-1.31-1.63-2.04-2.36c-0.05-0.05-0.08-0.09-0.1-0.15c-4.75-10.8-9.52-21.59-14.29-32.37
		c-3.32-7.5-6.65-15.01-10.02-22.49c-1.14-2.54-2.29-5.09-3.45-7.62c-0.35-0.76-0.7-1.52-1.06-2.27c-0.13-0.27-0.32-0.71-0.47-0.93
		c-0.21-0.25-0.42-0.49-0.65-0.72c-0.04-0.04-0.07-0.08-0.1-0.14c-0.66-1.4-1.33-2.79-2-4.19c-0.45-0.92-0.89-1.84-1.35-2.76
		c-0.16-0.33-0.33-0.65-0.5-0.97c-0.07-0.13-0.16-0.33-0.23-0.43c-0.23-0.24-1.17-0.74-1.49-0.92c-0.55-0.31-1.12-0.61-1.68-0.91
		c-0.01-0.01-0.02-0.01-0.03-0.02c-1.14-0.72-2.28-1.44-3.44-2.12c-0.15-0.09-0.38-0.17-0.54-0.24c-0.41-0.17-0.82-0.33-1.23-0.5
		c-1.34-0.53-2.68-1.04-4.03-1.55c-3.9-1.48-7.82-2.94-11.73-4.39c-5.79-2.15-11.58-4.28-17.38-6.41c-0.13-0.05-0.22-0.14-0.28-0.27
		c-0.93-2.15-4.9-11.1-6.52-12.14c-1.54-0.99-8.41-0.74-10.42-0.65c-0.14,0.01-0.25-0.04-0.35-0.13c-0.1-0.09-0.15-0.21-0.16-0.35
		c-0.06-1.85-0.07-3.73,0-5.58c0.01-0.17,0.09-0.31,0.22-0.4c1.07-0.7,1.64-2.12,1.8-3.36c0.01-0.06,0.02-0.11,0.05-0.17
		c1.64-3.06,2.81-6.72,3.45-10.14c0.2-1.06,0.35-2.14,0.43-3.22c0-0.07,0.02-0.13,0.05-0.19c0.52-1.02,0.27-2.09-0.11-3.1
		c-0.01-0.03-0.02-0.06-0.03-0.09c-0.07-0.4-0.17-0.82-0.34-1.18c-0.06-0.13-0.06-0.27,0-0.41c0.32-0.72,0.69-1.54,0.89-2.3
		c0.26-0.96,1.05-0.97,1.03-2.28c-0.01-0.86-0.48-1.99-0.99-2.69c-0.09-0.12-0.11-0.26-0.08-0.41c0.02-0.08,0.05-0.15,0.1-0.21
		c-0.42-0.49-0.61-1.16-0.42-1.83c0.31-1.08,0.35-0.83-0.27-1.84c-0.81-1.32-0.8-2.66-0.44-4.12c0.08-0.34,0.19-0.65,0.31-0.98
		c0.05-0.14,0.13-0.33,0.14-0.49c0.01-0.19-0.11-0.4-0.2-0.56c-0.68-1.11-1.2-2.23-1.44-3.52c-0.15-0.8-0.84-1.77-1.42-2.32
		c-0.09-0.08-0.14-0.18-0.15-0.3c-0.06-0.47-0.18-0.93-0.33-1.38c-0.36-1.05-1.36-2.93-2.31-3.54c-0.56-0.36-1.19-1.04-1.24-1.74
		c-0.01-0.08,0.01-0.16,0.04-0.24c-0.19-0.34-0.35-0.71-0.42-1.03c-0.02-0.07-0.04-0.13-0.08-0.19c-0.1-0.13-0.29-0.27-0.41-0.38
		c-0.27-0.24-0.49-0.48-0.69-0.79c-0.53-0.84-0.33-2-1.18-2.53c-0.6-0.38-1.54-0.58-2.25-0.57c-0.24,0.01-0.45-0.17-0.49-0.41
		c-0.09-0.5-0.44-1.03-0.87-1.3c-0.13-0.07-0.2-0.19-0.23-0.33c-0.08-0.38-0.34-1.06-0.7-1.23c-0.32-0.16-1.04,0.36-1.26,0.57
		c-0.15,0.14-0.36,0.17-0.55,0.08c-0.49-0.25-1.23-0.24-1.75-0.06c-0.14,0.05-0.29,0.04-0.42-0.04c-0.26-0.14-0.87-0.17-1.15-0.17
		c-0.29,0-0.55,0.07-0.83,0.08c-0.75,0.02-1.54-0.67-2.09-1.12c-0.97-0.8-2.29-1.62-3.46-2.11c-0.2-0.08-0.32-0.28-0.3-0.5
		c0.1-1.05-0.56-2.47-1.76-2.43c-0.8,0.03-1.2,1.07-1.29,1.75c-0.02,0.19-0.14,0.34-0.32,0.4c-0.18,0.06-0.36,0.02-0.5-0.1
		c-0.27-0.26-0.65-0.55-0.99-0.7C81.04,1.83,81.03,1.83,81,1.83c-0.15,0.02-0.37,0.14-0.54,0.19c-0.41,0.11-0.79,0.07-1.18-0.09
		c-0.98-0.39-1.35-0.61-2.43-0.29c-1.22,0.37-2.27,0.87-3.56,0.49c-0.65-0.19-1.62,0.29-2.12,0.67c-0.21,0.16-0.5,0.12-0.67-0.08
		l-0.01-0.01c-0.03,0.03-0.05,0.06-0.08,0.08c-0.62,0.59-2.68,0.46-3.5,0.33c-0.78-0.12-1.15,0.67-1.49,1.24
		C65.24,4.66,65,4.88,64.71,5.04c-0.29,0.15-0.6,0.22-0.92,0.26c-0.3,0.04-0.91,0.05-1.17,0.16c-0.9,0.4-0.85-0.15-1.52-0.15
		c-0.08,0-0.14,0.01-0.21,0.05c-0.2,0.11-0.42,0.41-0.55,0.6c-0.28,0.38-0.56,0.73-0.95,1.01c-0.45,0.31-0.88,0.38-1.4,0.21
		c-0.25-0.08-0.53-0.26-0.78-0.12c-0.36,0.19-1,1.26-1.25,1.62c-0.38,0.54-0.83,1.13-1.41,1.46c-0.27,0.15-0.54,0.26-0.83,0.33
		c-0.16,0.04-0.33,0.06-0.48,0.1c-0.28,0.07-0.52,0.41-0.69,0.63c-0.97,1.34-1.81,1.72-3.26,2.39c-1.06,0.49-2.36,4.08-2.7,5.2
		c-0.05,0.15-0.15,0.26-0.3,0.32c-0.15,0.05-0.3,0.04-0.43-0.05c-0.02-0.01-0.03-0.01-0.06-0.02c0.14,0.41,0.08,0.9-0.18,1.35
		c-0.5,0.85-0.24,1.15-0.05,1.99c0.06,0.28,0.19,0.52,0.31,0.78c0.2,0.44,0.28,0.82,0.24,1.31c-0.04,0.48,0.42,1.22,0.72,1.57
		c0.17,0.19,0.16,0.48-0.02,0.67c-0.32,0.33-0.66,0.66-1.01,0.97c-0.55,0.49-2.01,3.72-2.41,4.55c-0.36,0.76-0.43,1.86-0.14,2.66
		c0.05,0.14,0.04,0.27-0.03,0.4c-0.34,0.63,0.04,2.79-0.01,3.62c-0.01,0.22-0.01,0.45,0.03,0.67c0.12,0.74,0.69,1.81,1,2.5
		c0.3,0.67,0.59,1.38,0.44,2.13c-0.08,0.43-0.24,0.8-0.31,1.26c-0.09,0.6-0.14,1.46-0.04,2.06c0.01,0.08,0.01,0.16-0.01,0.23
		c-0.03,0.12-0.02,0.32-0.02,0.44c0,0.01,0,0.02,0,0.02c0.01,0.32,0.05,0.65,0.07,0.97c0.05,0.64,0.1,1.28,0.15,1.92
		c0.06,0.84,0.13,1.67,0.2,2.51l1.39,0.1c0.19,0.01,0.35,0.13,0.42,0.32c0.54,1.47,1.4,3.13,2.27,4.41
		c0.01,0.02,0.02,0.03,0.03,0.05c0.86,1.69,2.02,3.3,3.25,4.74c0.05,0.06,0.08,0.12,0.1,0.2c0.75,2.85,1.52,5.69,2.3,8.53
		c0.61,2.22,1.23,4.45,1.89,6.66c0.25,0.82,0.5,1.64,0.77,2.45c0.15,0.44,0.31,0.96,0.52,1.37c0.54,1.09,1.55,2.32,2.32,3.25
		c0.95,1.15,1.95,2.26,2.97,3.35c0.12,0.13,0.16,0.29,0.12,0.46l-1.69,6.77c-0.04,0.14-0.12,0.25-0.25,0.32
		c-3.86,2-7.72,4.02-11.56,6.06c-2.58,1.37-5.16,2.75-7.72,4.17c-0.89,0.5-1.79,1-2.67,1.52C38.94,108.51,38.27,108.89,38.05,109.1
		L38.05,109.1z M158.22,203.9c0.26-2.3,0.56-4.59,0.78-6.19l0.15-1.09l0.63,0.9c0.76,1.1,1.49,2.13,2.13,3.05l1.78,2.54l-0.15,0.25
		c-0.68,1.09-1.45,2.29-2.3,3.51c-0.86,1.23-1.79,2.48-2.76,3.68l-0.79,0.97l0.03-1.26C157.75,208.55,157.97,206.21,158.22,203.9
		L158.22,203.9z"/>
	<path fill-rule="evenodd" clip-rule="evenodd" fill="#CA7E31" d="M38.05,109.1c-0.09,0.18-0.18,0.38-0.26,0.55
		c-0.19,0.42-0.38,0.85-0.57,1.27c-0.54,1.21-1.08,2.42-1.61,3.64c-0.66,1.51-1.33,3.01-1.99,4.52l0.61,0.71l8.68-7.09l3.13,2.02
		c0,0-4.07,3.08-5.55,4.66c-1.48,1.58-2.94,4.93-2.94,4.93l0.32,1.99l-1.24,4.02c0,0-2.6,7.85-3.78,10.14
		c-1.18,2.29-3.98,5.97-3.98,5.97l0.43,0.91l-0.26,5.33l-0.78,1.96l-1.78,6.86l-2.29,7.32c0,0,0.59,13.68,0.27,16.46
		c-0.32,2.78-5.39,14.72-5.39,14.72s-2.43-3.22-3.45-5.18c-1.02-1.96-6.85-23.71-6.85-23.71l-0.67-0.55c-0.46,2.3-0.78,4.68-1.01,7
		c-0.45,4.49-0.55,9.15-0.02,13.63c0.08,0.66,0.17,1.31,0.28,1.96c0.65,3.87,1.77,8.3,3.8,11.68c1.24,2.07,3.33,4.49,5.97,4.33
		c1.11-0.07,2.85,0.43,3.92,0.74c1.87,0.54,3.72,1.19,5.55,1.85c2.95,1.08,5.89,2.23,8.79,3.44c0.17,0.07,0.28,0.22,0.3,0.39h165.16
		c0.78-1.66,1.55-3.33,2.27-5.01c0.55-1.27,1.08-2.56,1.55-3.87c0.22-0.62,0.65-1.84,0.65-2.5c0-0.7-0.25-1.54-0.49-2.19
		c-0.03-0.07-0.04-0.14-0.03-0.22c0.22-2.28,0.42-4.58,0.56-6.87c0.1-1.55,0.17-3.11,0.17-4.66c0-0.81,0-2.19-0.23-2.97
		c-0.24-0.79-0.78-1.75-1.2-2.46c-0.68-1.15-1.44-2.28-2.25-3.34c-0.63-0.82-1.31-1.63-2.04-2.36c-0.05-0.05-0.08-0.09-0.1-0.15
		c-4.75-10.8-9.52-21.59-14.29-32.37c-3.32-7.5-6.65-15.01-10.02-22.49c-1.14-2.54-2.29-5.09-3.45-7.62
		c-0.35-0.76-0.7-1.52-1.06-2.27c-0.13-0.27-0.32-0.71-0.47-0.93c-0.21-0.25-0.42-0.49-0.65-0.72c-0.04-0.04-0.07-0.08-0.1-0.14
		c-0.66-1.4-1.33-2.79-2-4.19c-0.45-0.92-0.89-1.84-1.35-2.76c-0.16-0.33-0.33-0.65-0.5-0.97c-0.07-0.13-0.16-0.33-0.23-0.43
		c-0.23-0.24-1.17-0.74-1.49-0.92c-0.55-0.31-1.12-0.61-1.68-0.91c-0.01-0.01-0.02-0.01-0.03-0.02c-1.14-0.72-2.28-1.44-3.44-2.12
		c-0.15-0.09-0.38-0.17-0.54-0.24c-0.41-0.17-0.82-0.33-1.23-0.5c-1.34-0.53-2.68-1.04-4.03-1.55c-3.9-1.48-7.82-2.94-11.73-4.39
		c-5.79-2.15-11.58-4.28-17.38-6.41c-0.13-0.05-0.22-0.14-0.28-0.27c-0.93-2.15-4.9-11.1-6.52-12.14
		c-1.54-0.99-8.41-0.74-10.42-0.65c-0.14,0.01-0.25-0.04-0.35-0.13c-0.1-0.09-0.15-0.21-0.16-0.35c-0.02-0.5-0.03-1.01-0.04-1.51
		l-0.09,8.4l4.95,4.09l-8.24,12.21l-9.27,4.91l-18.06,24.26l-2.26-7.74l-3.08-11.89l0.34-4.84l1.02-1.32l0.93,1.53l-1.42-5.05
		l-9.45-11.53l-1.5,0.84c0.91,1.09,1.86,2.15,2.83,3.18c0.12,0.13,0.16,0.29,0.12,0.46l-1.69,6.77c-0.04,0.14-0.12,0.25-0.25,0.32
		c-3.86,2-7.72,4.02-11.56,6.06c-2.58,1.37-5.16,2.75-7.72,4.17c-0.89,0.5-1.79,1-2.67,1.52C38.94,108.51,38.27,108.89,38.05,109.1
		L38.05,109.1z M158.22,203.9c0.26-2.3,0.56-4.59,0.78-6.19l0.15-1.09l0.63,0.9c0.76,1.1,1.49,2.13,2.13,3.05l1.78,2.54l-0.15,0.25
		c-0.68,1.09-1.45,2.29-2.3,3.51c-0.86,1.23-1.79,2.48-2.76,3.68l-0.79,0.97l0.03-1.26C157.75,208.55,157.97,206.21,158.22,203.9
		L158.22,203.9z"/>
	<path fill-rule="evenodd" clip-rule="evenodd" fill="#B09680" d="M19.71,128.8l4.35,3.78l2.81-1.05l2.55-4.73l3.01,1.71l4.12,1.18
		l-1.96,7.23l-5.38,8.51l-6.14-1.41l2.54-2.96l-0.97-3.08l-3.08-1.45l-2.62-1.05l-5.1,0.33c0,0-5.78-2.05-5.13-2.56
		S19.71,128.8,19.71,128.8z"/>
	<path fill-rule="evenodd" clip-rule="evenodd" fill="#DE428A" d="M73.91,106.9c0.44,1.13,1.37,2.37,2.23,3.19
		c2.29,2.2,5.26,3,8.38,2.81c0.08-0.01,0.16,0.04,0.2,0.11c0.04,0.07,0.03,0.16-0.02,0.23c-0.92,1.24-1.83,2.48-2.75,3.72
		c-0.04,0.05-0.09,0.08-0.15,0.09c-0.06,0.01-0.12-0.01-0.16-0.05l-0.23-0.2c-0.01-0.01-0.01-0.01-0.02-0.02
		c-0.12-0.09-0.43-0.23-0.56-0.29c-0.82-0.39-1.67-0.74-2.51-1.08c-3.08-1.26-5.79-10.82-6.59-13.96c-0.01-0.03-0.01-0.07,0-0.1
		c0.04-0.16,0.08-0.33,0.12-0.49c0.02-0.09,0.1-0.16,0.2-0.16c0.1,0,0.18,0.06,0.21,0.15c0.12,0.4,0.24,0.81,0.36,1.21
		C73.1,103.63,73.59,105.29,73.91,106.9L73.91,106.9z M71.53,108.76c-0.16-0.93-0.25-1.87-0.26-2.81c0-0.11,0.07-0.2,0.18-0.21
		c0.1-0.02,0.21,0.04,0.24,0.14c0.93,2.86,3.31,9.56,6.16,10.73c1.02,0.42,2.14,0.83,3.23,1.04c0.07,0.01,0.13,0.06,0.16,0.13
		c0.03,0.07,0.02,0.14-0.03,0.21c-1.6,2.16-3.19,4.32-4.79,6.47c-0.05,0.07-0.14,0.1-0.22,0.08c-0.09-0.02-0.15-0.09-0.16-0.18
		c-0.81-5.32-2.51-10.57-4.49-15.56C71.53,108.79,71.53,108.78,71.53,108.76L71.53,108.76z"/>
	<path fill-rule="evenodd" clip-rule="evenodd" fill="#676767" d="M12.51,133.25c-0.02,0-0.03,0-0.05,0.01
		c-0.27,0.08-0.56-0.06-0.66-0.32c-0.1-0.26,0.01-0.56,0.27-0.68c0.01-0.01,0.03-0.02,0.04-0.03c0.65-0.53,1.5-0.95,2.29-1.26
		c0.78-0.3,1.69-0.57,2.53-0.62c0.02,0,0.03,0,0.05-0.01c0.27-0.08,0.56,0.06,0.66,0.32c0.1,0.26-0.01,0.56-0.27,0.68
		c-0.01,0.01-0.03,0.02-0.04,0.03c-0.65,0.53-1.5,0.95-2.29,1.26C14.26,132.94,13.35,133.2,12.51,133.25L12.51,133.25z M33,122.48
		l0.05-0.08c0.65-0.98,1.43-1.96,2.2-2.86c1.61-1.88,3.47-3.68,5.53-5.06c0.87-0.58,1.79-1.1,2.76-1.5
		c0.22-0.09,0.45-0.03,0.61,0.14l1.22,1.37c0.11,0.13,0.16,0.28,0.13,0.45c-0.03,0.17-0.12,0.3-0.26,0.38
		c-3.53,2.04-6.96,5.3-8.11,9.34l-0.03,0.12l0.05,0.1c0.17,0.36,0.38,0.83,0.58,1.16c0.1,0.15,0.11,0.33,0.04,0.5l-0.96,2.28
		c-0.09,0.21-0.29,0.34-0.52,0.33c-2.16-0.08-4.41-1.25-6.1-2.51c-0.21-0.15-0.28-0.43-0.17-0.66l1.2-2.61
		c0.06-0.13,0.15-0.22,0.28-0.27L33,122.48L33,122.48z"/>
	<path fill-rule="evenodd" clip-rule="evenodd" fill="#BC7E5E" d="M57.24,20.77l7.55,0.81c0,0-5.54,2.46-6.03,4.59
		c-0.49,2.13-0.49,6.98-0.6,9.49c-0.11,2.51-0.6,3.54-1.68,4.52c-1.09,0.98-1.63,6.38-1.63,6.38l10.78-0.64l8.93-3.9l8.66-0.53
		c0,0-3.82,3.96-3.82,3.88c0-0.08-2.31,1.51-2.66,2.13c-0.35,0.61-1.13,1.91-1.13,1.91l1.52-0.33l0.92,0.46c0,0,0.54,1.77,1.14,2.13
		c0.6,0.35,4.21,0.19,4.89,0.03c0.68-0.16,2.04-0.57,2.04-0.57s-3.34,3.38-4.59,3.57c-1.25,0.19-7-3.49-7.17-3.79
		c-0.16-0.3,0.95-1.77,0.95-1.77s-0.52-1.64-1.19-1.42c-0.68,0.22-1.25,1.17-1.17,1.74c0.08,0.57-2.01,2.81-2.01,2.81
		s-2.5-1.69-3.31-1.31c-0.81,0.38-1.63,1.04-1.68,1.47c-0.05,0.44-0.92,8.12-0.92,8.12s-0.92,1.17-0.35,2.7
		c0.57,1.53,2.39,2.07,3.8,1.66c1.41-0.41,3.09-2.45,5.1-2.1c0,0,1.87,0.75,2.12,0.68c0.24-0.07,0.73-0.72,0.62-1.24
		c-0.11-0.52-1.53-1.38-1.53-1.38l0.29-1.57c0,0,2.4,3.19,2.43,4.14c0.03,0.95-3.58,4.17-3.58,4.17l-1.52,5.94
		c0,0-1.14,0.89-2.62,0.68l-1.94,1.79l0.34,2.46c0,0,0.35,0.89,0.76,0.97c0.41,0.08,5.59-0.71,6.27-1.23
		c0.68-0.52,0.9-0.63,0.9-0.63s0.73,3.28-1.17,4.46c-1.9,1.17-5.21,9.43-5.21,9.43l8.8,5.59l16.05-9.25l4.62-5.97
		c0,0-5.68,15.27-7.31,18.65c-1.63,3.38-7.49,8.18-9.23,8.18c-1.74,0-7.06-3.38-7.06-3.38l-0.38,2.51l-3.96-12.16L60.33,83.02
		l-2.93-2.34c0,0-5.34-18.3-5.2-19.69c0.14-1.39-2.73-14.62-2.73-14.62s-0.49-13.71-0.11-16.17C49.75,27.75,57.24,20.77,57.24,20.77
		L57.24,20.77z M76.99,75.27c0,0,0.84-0.3,1.21-0.99c0.37-0.7,2.39-0.05,1.63,1.84C79.07,78.01,76.99,75.27,76.99,75.27L76.99,75.27
		z M61.49,57.03c0,0,0.3,3.92,0.33,4.72c0.03,0.79-1.68,4.22-2.33,4.74c-0.65,0.52-2.09-0.57-2.36-1.23
		c-0.27-0.65-0.33-2.64-0.05-2.97c0.27-0.33,0.71-0.44,1.9-1.23C60.15,60.28,61.49,57.03,61.49,57.03L61.49,57.03z M54.58,54.02
		c0,0,0.95-3.28,3.69-3.68c2.74-0.4,3.56-0.27,3.87,0.08c0.31,0.35,1.2,1.79,1.2,1.79s-0.87,0.33-2.27,1.28
		C59.67,54.43,56.87,56.94,54.58,54.02L54.58,54.02z M56.75,56.47c0,0,1.13-0.69,2.63-1.17c1.51-0.48,2.77-0.97,2.77-0.97
		s-1.56,2.21-2.62,2.71C58.48,57.55,56.75,56.47,56.75,56.47L56.75,56.47z"/>
	<path fill-rule="evenodd" clip-rule="evenodd" fill="#F4BEA7" d="M65.68,77.97c0,0,0.88,0.41,1.91,0.5
		c1.03,0.1,4.33-0.22,6.72-1.06s3.05-1.89,3.05-1.89s-2.47-0.63-3.95-0.29c-1.48,0.34-3.92,0.97-5.19,1.32
		C66.97,76.91,65.68,77.97,65.68,77.97L65.68,77.97z"/>
	<path fill-rule="evenodd" clip-rule="evenodd" fill="#454444" d="M104.23,55.91l0.3-3.43c0,0,3.66-5.02,4.64-5.23
		c0.98-0.22,1.93,0.71,2.12,1.09c0.19,0.38-0.03,5.64-0.03,6.57c0,0.93-4.26,8.18-4.26,8.18s3.26-7.58,3.2-8.5
		c-0.05-0.93-0.16-3.56-0.37-3.72c-0.2-0.16-1.1-0.52-1.1-0.52l-2.17,3.12c0,0,1.11,2.13,1.19,2.4c0.08,0.27-3.53,5.23-3.53,5.23
		l-0.24-1.42c0,0,0.35-1.14,0.35-1.61C104.34,57.6,104.23,55.91,104.23,55.91L104.23,55.91z"/>
	<path fill="#454444" d="M107.29,43.84c0.01,0,3.66-1,5.56,1.61c0.95,1.3,1,4.67,0.28,8.51c-0.63,3.35-1.84,7.15-3.53,10.28
		c-0.13,0.95-0.93,5.1-5.32,4.13l0.37-1.7c2.99,0.66,3.24-2.76,3.24-2.77l0.02-0.18l0.09-0.16c1.64-3,2.82-6.67,3.43-9.92
		c0.64-3.41,0.69-6.25,0.03-7.17c-1.2-1.64-3.72-0.96-3.72-0.95L107.29,43.84L107.29,43.84z"/>
	<path fill-rule="evenodd" clip-rule="evenodd" fill="#454444" d="M75.66,46.13c0,0,1.76-1.72,2.35-1.91
		c0.58-0.19,5.05-0.56,6.15-0.23c1.1,0.33,2.06,1.21,2.06,1.21s-1.32-0.93-2.58-0.95c-1.26-0.03-4.89,0.15-5.88,0.5
		C76.78,45.1,75.66,46.13,75.66,46.13L75.66,46.13z"/>
	<path fill-rule="evenodd" clip-rule="evenodd" fill="#454444" d="M71.52,45.24c0,0,0.73-2.29,0.9-2.53
		c0.16-0.25,1.11-0.87,1.11-0.87l-0.22,0.65c0,0,1.36-0.98,1.68-1.09c0.33-0.11,7.19-1.91,7.19-1.91l1.87,0.38l-1.55-0.84
		c0,0,3.04,0.38,4.37,1.44c1.33,1.06,1.79,3.49,1.79,3.49s-4.07-1.2-5.84-0.93c-1.76,0.27-8.66,2.07-8.96,2.13
		c-0.3,0.05-1.68,0.05-1.68,0.05l0.12-0.76L71.52,45.24L71.52,45.24z"/>
	<path fill-rule="evenodd" clip-rule="evenodd" fill="#454444" d="M55.49,54.95l0.79,0.55l-1.32-0.2c0,0-0.84,0.3-1.44-0.01
		c-0.6-0.31,0.09-0.55,0.07-0.67c-0.03-0.12,0.16-2.28,0.33-2.47c0.16-0.19,3.61-2.83,5-2.93c1.38-0.1,3.09,0.83,3.46,0.99
		c0.37,0.16,1.1,0.22,1.36,0.26c0.26,0.04,0.68,1.66,0.68,1.66l-0.91,0.23c0,0-1.44-1.32-1.75-1.47c-0.31-0.15-1.79-0.83-3.19-0.4
		c-1.4,0.44-2.69,1.13-3.24,2.22C54.75,53.8,55.49,54.95,55.49,54.95L55.49,54.95z"/>
	<path fill-rule="evenodd" clip-rule="evenodd" fill="#454444" d="M53.1,53.13c0,0,0.5-1.96,0.96-2.51c0.46-0.55,2.4-1.88,2.88-1.96
		c0.48-0.08,0.92,0,0.92,0s-1.7,0.53-2.65,1.49S53.49,51.4,53.1,53.13L53.1,53.13z"/>
	<path fill-rule="evenodd" clip-rule="evenodd" fill="#454444" d="M51.28,50.89c0,0,0.87-2.13,2.57-2.73l-0.46,0.64
		c0,0,1.06-0.6,1.74-0.67c0.68-0.07,4.22-0.25,4.22-0.25l0.62-0.76l-0.18,0.97l1.36-2.37c0,0-7.52-0.11-8.82,0.87
		C51.02,47.57,51.28,50.89,51.28,50.89L51.28,50.89z"/>
	<path fill-rule="evenodd" clip-rule="evenodd" fill="#454444" d="M46.8,26.36c0,0-0.92-1.06-0.84-1.94
		c0.08-0.87-0.38-1.2-0.54-1.94c-0.16-0.74-0.52-1.28,0.11-2.34c0.62-1.06-0.41-1.47-0.41-1.47s0.95-0.27,1.33-0.03
		c0,0,1.49-4.82,2.99-5.51c1.49-0.68,2.2-1.01,3.09-2.24c0.9-1.23,1.03-0.57,2.17-1.2c1.14-0.63,1.87-2.64,2.69-3.08
		s1.25,0.57,2.14-0.05c0.9-0.63,1.11-1.74,2.01-1.74c0.9,0,0.65,0.49,1.33,0.19c0.68-0.3,2.02,0.05,2.59-0.9
		c0.57-0.95,1.02-1.62,2-1.47c0.98,0.15,2.73,0.16,3.12-0.2c0.39-0.37,0.19-0.76,0.19-0.76l0.61,0.74c0,0,1.43-1.08,2.57-0.75
		c1.14,0.33,2.04-0.11,3.31-0.49c1.28-0.38,1.79-0.08,2.77,0.3c0.98,0.38,1.25-0.33,1.82-0.08s1.14,0.79,1.14,0.79
		S83.26,0.06,84.75,0c1.49-0.05,2.42,1.58,2.28,2.97c0,0,1.87,0.76,3.61,2.18c1.74,1.42,1.6,0.93,2.63,0.93
		c1.03,0,1.41,0.25,1.41,0.25s1.17-0.41,2.14,0.08c0,0,1.09-1.01,1.82-0.65c0.73,0.35,0.98,1.58,0.98,1.58s0.92,0.55,1.11,1.64
		c0,0,1.44-0.04,2.54,0.64c1.1,0.68,0.81,1.85,1.34,2.68s1.13,0.89,1.26,1.53c0.14,0.64,0.72,1.43,0.72,1.43l-0.33-0.1
		c0,0,0.05,0.75,1.02,1.36c0.96,0.61,2.59,2.98,2.89,5.27c0,0,1.33,1.25,1.57,2.59c0.24,1.34,0.81,2.43,1.38,3.35
		c0.57,0.93,0.14,1.12-0.19,2.4c-0.33,1.28-0.38,2.51,0.38,3.73c0.76,1.23,0.65,1.09,0.33,2.23c-0.33,1.14,0.81,1.77,0.81,1.77
		l-0.49,0.25c0,0,1.07,1.49,1.09,2.97c0.01,1.49-0.86,1.66-1.06,2.41c-0.2,0.75-0.67,1.81-0.93,2.39c-0.26,0.59,2.33,3.59-0.51,6
		c0,0,0.78-4.95-1.67-6.31c-2.44-1.36-3.8,1.23-4.51,2.34c-0.71,1.12-1.79,1.96-1.79,1.96s1.06,3.22,0.35,4.96
		c-0.7,1.74-1.47,2.64-1.44,3.24c0.03,0.6,0.19,1.28,0.19,1.28s-1.71-0.57-2.52-1.99c-0.81-1.42-0.9-2.86-0.9-2.86l1.3,1.28
		c0,0-1.62-2.41-1.51-3.71c0.11-1.29-0.65-4.52-0.65-4.52l1.48,2.43L99,44.27c0,0-0.76-3.24-1.71-4.47c-0.95-1.23-3.99-3.52-5-5.75
		l1.47,1.12c0,0-1.9-1.85-2.14-3.6c-0.24-1.74-0.49-3-0.11-6.62c0.38-3.63-0.98-4.77-2.06-4.96l0.41,0.87c0,0-0.54-1.58-4.04-0.84
		c-3.5,0.74-4.48-1.06-5.27-0.9c-0.79,0.16-3.37,0.95-6.13,1.01c-2.77,0.05-3.2-0.44-4.07,0.33c-0.87,0.76-4.45,0.05-4.45,0.05
		s-0.43,1.31-2.61,1.42c-2.17,0.11-2.44-0.05-2.44-0.05s-1.25,1.09-2.44,0.82c-1.19-0.27-1.95,1.64-2.99,2.45
		c-1.03,0.82-3.58,2.64-4.23,7.17c0,0,0.15,11.55,0.38,12.57c0.23,1.01,0.26,1.11,0.26,1.11l0.5,2.47c0,0-0.64,3.66-0.6,4.06
		c0.03,0.39,0.16,1.8,0.16,1.8s0.39,6.97,1.37,10.5c0,0-3.19-3.14-4.89-6.93c-1.69-3.79-2.15-5.17-3.32-7.2
		c-1.17-2.03-0.85-3.07-0.85-3.07s-0.16-0.88,0.03-2.22c0.2-1.34,0.72-1.31-0.1-3.11c-0.81-1.8-1.14-2.32-1.07-3.4
		c0.07-1.08-0.39-2.98,0.07-3.83c0,0-0.55-1.54,0.16-3.04c0.72-1.5,1.99-4.22,2.54-4.71C46.37,26.81,46.8,26.36,46.8,26.36
		L46.8,26.36z"/>
	<path fill="#454444" d="M52.93,60.79c0.01,0.05,5,19.06,6.07,21.21c1.05,2.12,5.52,6.73,5.53,6.74l-1.09,1.06
		c-0.01-0.01-4.64-4.79-5.8-7.12c-1.15-2.3-6.17-21.45-6.18-21.5L52.93,60.79L52.93,60.79z"/>
	<path fill="#454444" d="M107.59,67.42c0,0.04-0.7,12.98,2.33,19.39c-4.63,2.2-4.23-16.21-4.07-19.48L107.59,67.42L107.59,67.42z"/>
	<path fill-rule="evenodd" clip-rule="evenodd" fill="#454444" d="M91.19,71.33c0,0,1.77-1.57,3.1-2.88
		c2.93-2.9,4.68-4.75,4.68-4.75l0.1-0.74c0.23,0.09-0.06-0.6,0.25-1.97c0.31-1.36,1.12-4.74,1.12-4.74l3.83,0.09
		c0,0-0.22,13.89-0.48,16.5c-0.25,2.61-6.81,13.81-15.07,20.24c0,0-4.61,3.71-6.41,4.2c-1.79,0.49-5.97,0.98-9.28,0.71
		c-3.31-0.27-10.62-6.33-10.62-6.33s-2.75-3.01-3.61-5.44c-0.86-2.43-1.51-4.72-1.51-4.72l-0.18-1.21l0.39-1.91
		c0,0,0-0.66,0.56-1.54l0.8-1.04c0,0,0.57-0.59,0.74-0.89c0.16-0.29,0.91-1.15,0.91-1.15l0.36-0.41c0,0,2.01-2.22,2.6-2.94
		c0.59-0.72,2.64-2.68,3.03-2.75c0.39-0.07,1.99,0.39,2.8,0.2c0.81-0.2,1.63-1.21,2.41-1.34c0.78-0.13,11.77,2.83,12.48,3.16
		 M86.38,70.1 M64.7,78.87c0,0-0.83-0.21-0.5-0.81c0.33-0.6,1.75-1.84,1.75-1.84l0.69-0.83c0,0,0.46-0.5,1.3-0.83
		c0.84-0.33,2.06,0.08,2.87-0.11c0.81-0.19,1.39-0.88,2.29-0.75c0.9,0.14,2.82,0.67,2.82,0.67l1.83,0.48c0,0,0.86,0.05,1.22,0.85
		c0.41,0.89-0.75,0.97-0.75,0.97 M65.07,79.01l-0.74,0.1"/>
	<path fill-rule="evenodd" clip-rule="evenodd" fill="#BC7E5E" d="M64.54,78.53l0.22-0.52l0.53-0.12c0,0,2.66-2.9,2.95-2.97
		c0.29-0.07,1.55,0.25,2.35,0.03c0.8-0.22,1.75-0.94,2.29-0.93c0.54,0.01,4.42,1.21,4.81,1.23c0.38,0.01,0.75-0.12,0.75-0.12
		s0.03,0.68,0.01,0.76c-0.01,0.08-0.6,0.12-0.6,0.12s-3.9-0.34-4.19-0.2c-0.3,0.14-2.28,0.95-2.59,0.99
		c-0.31,0.04-2.04-0.1-2.33-0.03c-0.3,0.07-2.27,1.28-2.44,1.42S64.54,78.53,64.54,78.53L64.54,78.53z"/>
	<path fill-rule="evenodd" clip-rule="evenodd" fill="#454444" d="M70.28,65.15c0,0,1.59-1.64,2.81-1.61
		c1.22,0.03,0.94,1.61,0.94,1.61s-0.24-0.71-0.71-0.42c-0.46,0.29-0.54,0-0.94-0.16C71.99,64.4,70.85,64.54,70.28,65.15L70.28,65.15
		z"/>
	<path fill-rule="evenodd" clip-rule="evenodd" fill="#454444" d="M65.18,65.59c0,0,0.52,0.57,1,0.7c0.49,0.12,0.91,0.15,0.91,0.15
		s-0.69,0.37-1.02,0.25C65.75,66.55,65.18,65.59,65.18,65.59L65.18,65.59z"/>
	<path fill-rule="evenodd" clip-rule="evenodd" fill="#454444" d="M62.82,63.84c0,0,0.08,1.06,0.5,1.88c0.42,0.82,1.6,1.27,1.6,1.27
		S62.26,67.11,62.82,63.84L62.82,63.84z"/>
	<path fill-rule="evenodd" clip-rule="evenodd" fill="#454444" d="M64.42,45.16c0,0,2.61-0.11,3.42-0.65
		c0.81-0.55,6.08-5.34,22.91-5.34l11.13,3.33l-0.38,2.89l-9.18-0.49c0,0-1.52-0.33-1.68,1.64c0,0-0.49,7.25-4.45,8.78
		c-3.96,1.53-8.85,2.89-12.05,1.58c-3.2-1.31-4.67-6.7-5.97-7.41c-1.3-0.71-2.39-0.6-2.61,1.58L63.5,61.16l0.05-2.1
		c0,0-7.09,2.86-10.72,2.73c-3.64-0.14-6.41-7.58-6.41-7.58l-1.82-0.14c0,0-0.44-5.57-0.45-5.85c-0.01-0.28,7.14-2.62,10.83-3.09
		C58.68,44.67,64.42,45.16,64.42,45.16L64.42,45.16z M49.01,57.15c0,0-1.93-5.18-1.3-7.17C48.33,48,59.01,46,60.62,46.64
		c1.61,0.65,2.86,2.8,3.19,4.35c0.33,1.55-0.41,6.19-0.95,6.79c-0.54,0.6-6.19,3.11-8.99,2.73C51.08,60.12,49.47,58.11,49.01,57.15
		L49.01,57.15z M70.57,48.54c0,0-0.08-3.75,1.37-4.57c1.45-0.82,10.79-3,13.15-2.4c2.36,0.6,3.28,3.3,3.39,4.88
		c0.11,1.58,0.03,5.59-1.41,6.87c-1.44,1.28-6.43,2.75-9.04,2.75c-2.61,0-4.15-0.16-4.59-1.53C73.01,53.17,73.5,52,70.57,48.54
		L70.57,48.54z"/>
	<path fill="#454444" d="M106.69,73.55c0.03,0,9.63-0.63,11.66,0.67c2.02,1.29,6.89,12.68,6.9,12.71l0.18,0.42l-7.99,12.7
		l-15.86-2.49l0.83-1.15c0.04-0.05,12.83-17.73,13.42-18.92c0.31-0.64-0.85-1.91-0.85-1.91l1.4-0.22c-2.86-0.51-9.56-0.07-9.58-0.07
		L106.69,73.55L106.69,73.55z M117.42,75.69c-0.08-0.05-0.18-0.1-0.3-0.14c0.41,0.55,0.85,1.5,0.27,2.71
		c-0.56,1.16-9.87,14.07-12.74,18.03l11.94,1.87l6.89-10.96C122.61,85.19,118.8,76.57,117.42,75.69L117.42,75.69z"/>
	<path fill="#454444" d="M108.12,80.65c0.01,0.01,1.84,2.5,3.96,3.52l-0.75,1.57c-2.52-1.21-4.6-4.05-4.61-4.06L108.12,80.65
		L108.12,80.65z"/>
	<path fill="#454444" d="M60.76,215.58l13.63-88.74c6.53-8.82,13.05-17.64,19.59-26.46l8.77-4.24l0.75,1.57l-8.38,4.05l-19.07,25.76
		l-13.53,88.06H60.76L60.76,215.58z"/>
	<path fill="#454444" d="M124.75,86.46c0.1,0.04,34.22,12.45,35.59,13.26c1.3,0.76,3.5,2.14,3.5,2.14l-0.92,1.47
		c-0.01,0-2.14-1.35-3.45-2.11c-1.23-0.72-35.22-13.09-35.32-13.13L124.75,86.46L124.75,86.46z"/>
	<path fill="#454444" d="M156.92,107.74c1.62-3.03,5.98-5.87,5.99-5.88l0.42-0.28l0.45,0.24c0.01,0,3.01,1.57,3.37,1.96
		c0.34,0.37,4.25,8.58,4.26,8.6l-1.56,0.76c-0.01-0.02-3.84-8.02-3.99-8.19c-0.1-0.11-1.63-0.93-2.42-1.34
		c-1.06,0.74-3.86,2.84-5,4.96c-1.48,2.76-7.84,23.23-7.86,23.29C148.84,126.84,155.09,111.16,156.92,107.74L156.92,107.74z"/>
	<path fill="#454444" d="M171.97,113.06c0.9,1.08,30.01,66.79,30.1,66.98l-1.58,0.71c-0.08-0.19-29.11-65.7-29.84-66.57
		c-0.68-0.82-1.81-3.31-1.81-3.31C170.2,109.24,170.23,110.95,171.97,113.06L171.97,113.06z"/>
	<path fill="#454444" d="M147.53,170c0.01,0.03,4.09,11.25,6.87,15.64c2.83,4.48,12.22,17.7,12.24,17.73l-1.41,1.01
		c-0.03-0.04-9.48-13.34-12.3-17.81C151.27,183.94,146.34,176.67,147.53,170L147.53,170z"/>
	<path fill="#454444" d="M160.89,195.61c-0.01,0.04-2.08,13.86-1.53,16.69l-1.7,0.33c-0.61-3.12,1.51-17.24,1.51-17.28
		L160.89,195.61L160.89,195.61z"/>
	<polygon fill="#454444" points="64.84,89.49 60.69,105.96 58.84,106.18 63.15,89.06 64.84,89.49 	"/>
	<path fill="#454444" d="M55.14,111.73l18.12,32.7l-1.51,0.85l-18.8-33.93l10.14-8.86C63.7,105.13,57.29,109.85,55.14,111.73
		L55.14,111.73z"/>
	<path fill="#454444" d="M69.99,104.4c0.01,0.1,0.3,0.79,0.73,1.84c1.56,3.78,4.95,11.95,5.79,20.26l-1.72,0.17
		c-0.82-8.04-4.13-16.05-5.67-19.76C68.1,104.45,67.69,104.66,69.99,104.4L69.99,104.4z"/>
	<path fill="#454444" d="M72.86,98.56c-0.01,0.01-2.12,4.51-1.11,10.25l-1.71,0.3c-1.11-6.28,1.24-11.27,1.24-11.28L72.86,98.56
		L72.86,98.56z"/>
	<path fill="#454444" d="M72.55,96.87c0.01,0.02,2.26,6.72,2.86,9.75l-1.7,0.34c-0.59-2.96-3.07-10.67-3.07-10.69L72.55,96.87
		L72.55,96.87z"/>
	<path fill="#454444" d="M71.91,101.2c0.01,0.04,3.07,12.59,6.51,14c3.28,1.34,3.15,1.43,3.15,1.43l1.3,1.14c0,0-0.67,0.85-5.1-0.97
		c-4.27-1.75-7.53-15.15-7.54-15.19L71.91,101.2L71.91,101.2z"/>
	<path fill="#454444" d="M75.37,106.48c0.01,0.02,2.4,6.45,11.34,4.59l0.35,1.7c-10.39,2.17-13.34-5.78-13.35-5.81L75.37,106.48
		L75.37,106.48z"/>
	<path fill="#454444" d="M32.77,120.74c-0.03,0,4.8-11.29,5.14-11.91c0.46-0.84,23.74-12.8,23.8-12.83l0.79,1.55
		c-0.07,0.03-22.87,11.76-23.07,12.12c-0.31,0.57-4.9,10.97-4.91,11L32.77,120.74L32.77,120.74z"/>
	<path fill="#454444" d="M28.66,126.1l1.77-3.85l1.79-0.74c0.89-1.28,5.62-7.77,11.49-9.87l0.54-0.19l3.53,3.95l-1.05,0.5
		c-0.02,0.01-6.53,3.05-8.35,8.79c0.12,0.26,0.3,0.61,0.35,0.69l0.15,0.22l0.41,0.41l-1.8,4.27l-0.5,0.06
		c-0.01,0-3.59,0.45-8.1-3.18l-0.53-0.43L28.66,126.1L28.66,126.1z M31.72,123.6l-1.2,2.61c2.74,2.04,4.88,2.37,5.8,2.41l0.96-2.28
		c-0.14-0.22-0.62-1.21-0.62-1.22l-0.13-0.29l0.09-0.31c1.47-5.19,6.25-8.44,8.36-9.66l-1.22-1.37c-5.72,2.36-10.23,9.19-10.25,9.21
		l-0.15,0.22L31.72,123.6L31.72,123.6z"/>
	<path fill="#454444" d="M13.97,129.85c1.06-0.41,2.09-0.65,2.89-0.7c1.11-0.07,1.93,0.25,2.21,0.96c0.27,0.71-0.13,1.5-0.99,2.2
		c-0.62,0.51-1.54,1.03-2.6,1.44c-1.06,0.41-2.09,0.65-2.89,0.7c-1.11,0.07-1.93-0.25-2.21-0.96c-0.27-0.71,0.13-1.5,0.99-2.2
		C11.99,130.79,12.91,130.27,13.97,129.85L13.97,129.85z M16.96,130.89c-0.64,0.04-1.48,0.24-2.37,0.58
		c-0.89,0.35-1.64,0.77-2.14,1.17c-0.05,0.04-0.1,0.07-0.14,0.09c0.05-0.02,0.11-0.03,0.17-0.03c0.64-0.04,1.48-0.24,2.37-0.58
		c0.89-0.35,1.64-0.77,2.14-1.17c0.05-0.04,0.1-0.07,0.14-0.09C17.08,130.88,17.03,130.89,16.96,130.89L16.96,130.89z M17.45,130.74
		c-0.02-0.05-0.08,0.02-0.21,0.08C17.38,130.78,17.47,130.79,17.45,130.74L17.45,130.74z M11.99,132.87
		c0.02,0.05,0.08-0.02,0.21-0.08C12.07,132.83,11.97,132.81,11.99,132.87L11.99,132.87z"/>
	<path fill="#454444" d="M13.65,129.15c1.76-0.69,3.46-1.08,4.78-1.16c1.62-0.1,2.81,0.31,3.17,1.24c0.36,0.93-0.24,2.04-1.51,3.07
		c-1.03,0.83-2.54,1.69-4.31,2.38c-1.76,0.69-3.46,1.08-4.78,1.16c-1.62,0.1-2.81-0.31-3.17-1.24c-0.36-0.93,0.24-2.04,1.51-3.07
		C10.37,130.7,11.89,129.84,13.65,129.15L13.65,129.15z M18.53,129.73c-1.15,0.07-2.66,0.42-4.26,1.04
		c-1.59,0.62-2.94,1.38-3.84,2.11c-0.66,0.53-1.04,0.94-0.98,1.08c0.06,0.14,0.61,0.18,1.45,0.13c1.15-0.07,2.66-0.42,4.26-1.04
		c1.59-0.62,2.94-1.38,3.84-2.11c0.66-0.53,1.04-0.94,0.98-1.08C19.93,129.72,19.38,129.68,18.53,129.73L18.53,129.73z"/>
	<path fill="#454444" d="M21.77,129.43c0,0.01,1.07,2.56,3.35,2.16c2.38-0.42,3.48-5.3,3.48-5.31l1.69,0.38
		c0,0.02-1.35,6.03-4.88,6.65c-3.64,0.64-5.22-3.17-5.23-3.19L21.77,129.43L21.77,129.43z"/>
	<path fill="#454444" d="M37.74,129.65c-0.01,0.04-3.18,14.73-9.05,16.97l-0.61-1.63c4.98-1.9,7.96-15.67,7.97-15.71L37.74,129.65
		L37.74,129.65z"/>
	<path fill="#454444" d="M18.3,128.51c0-0.01,1.46-3.5,4.48-3.64c0.35-0.02,0.68,0.02,0.99,0.1c0.95,0.24,1.71,0.88,2.24,1.78v0
		c0.48,0.82,0.77,1.88,0.82,3.04c0.04,0.87-0.05,1.8-0.29,2.75l-1.68-0.42c0.2-0.79,0.27-1.55,0.24-2.25
		c-0.04-0.88-0.24-1.65-0.58-2.23l0,0c-0.3-0.5-0.69-0.85-1.17-0.97c-0.16-0.04-0.32-0.06-0.5-0.05c-1.92,0.08-2.96,2.57-2.96,2.58
		L18.3,128.51L18.3,128.51z"/>
	<path fill="#454444" d="M29.46,128.01c-0.01,0-2.35,0.55-3.17,1.16l-1.02-1.4c1.13-0.83,3.78-1.45,3.79-1.45L29.46,128.01
		L29.46,128.01z"/>
	<path fill="#454444" d="M0.96,151.18c0-0.01-1.28-3.79-0.88-5.25c0.21-0.78,1.67-3.76,3.16-6.12c1.03-1.63,2.13-3.03,2.99-3.39
		c0.87-0.37,3.63-0.84,6.37-1.21c3.04-0.4,6.14-0.66,6.76-0.49c0.64,0.18,2.76,0.82,4.35,1.54c1.08,0.49,1.97,1.07,2.22,1.7v0
		c0.02,0.06,0.04,0.11,0.06,0.17c0.22,0.74,0.06,1.9-0.36,2.93c-0.43,1.05-1.14,2.03-1.99,2.39c-0.06,0.02-0.12,0.05-0.19,0.07
		c-1.51,0.46-7.24-0.24-7.25-0.24l0.21-1.73c0.02,0,5.39,0.66,6.54,0.31l0.03-0.01c0.39-0.16,0.77-0.76,1.04-1.43
		c0.28-0.7,0.42-1.41,0.31-1.77l0-0.01c-0.06-0.15-0.62-0.44-1.33-0.77c-1.5-0.68-3.5-1.28-4.1-1.45c-0.41-0.11-3.22,0.16-6.07,0.54
		c-2.62,0.35-5.2,0.78-5.93,1.09c-0.48,0.2-1.32,1.34-2.19,2.72c-1.42,2.24-2.78,4.98-2.96,5.65c-0.26,0.94,0.9,4.49,0.9,4.49
		L0.96,151.18L0.96,151.18z"/>
	<path fill="#454444" d="M17.77,141.75c0,0-1.01,1.54-2.06,2.06c-0.51,0.25-1.29,0.43-2.01,0.59c-0.55,0.13-1.06,0.24-1.14,0.29
		c-0.3,0.21-0.89,1.06-0.89,1.06l-1.43-0.99c0,0,0.77-1.11,1.33-1.5c0.35-0.24,1.01-0.39,1.74-0.56c0.62-0.14,1.29-0.3,1.63-0.46
		c0.62-0.3,1.36-1.43,1.36-1.43L17.77,141.75L17.77,141.75z"/>
	<path fill="#454444" d="M4.78,146.03c0.01,0,3.51-0.5,4.53-0.9c0.5-0.2,1.21-0.57,1.86-0.91c0.8-0.42,1.53-0.8,1.93-0.88
		c0.33-0.07,3.2-0.47,5.48-0.76c1.5-0.19,2.77-0.32,3.03-0.27c0.27,0.05,2.76,0.97,4.79,1.79c1.32,0.54,2.49,1.06,2.83,1.33
		c0.41,0.33,0.71,1.14,0.93,2.07c0.36,1.55,0.6,3.64,0.6,3.71c0,0.16-0.44,1.15-0.84,1.9c-0.3,0.57-0.63,1.09-0.83,1.23
		c-0.24,0.17-0.98,0.49-0.98,0.49l-0.64-1.61c0,0,0.53-0.22,0.64-0.3c0.05-0.04,0.09-0.26,0.29-0.62c0.3-0.56,0.63-1.03,0.63-1.07
		c0-0.06-0.22-1.89-0.55-3.31c-0.14-0.6-0.26-1.07-0.32-1.11c-0.19-0.15-1.2-0.59-2.39-1.07c-1.94-0.79-4.26-1.65-4.48-1.69
		c-0.06-0.01-1.14,0.12-2.47,0.29c-2.21,0.28-5.02,0.68-5.36,0.75c-0.17,0.03-0.79,0.36-1.47,0.71c-0.7,0.37-1.47,0.77-2.03,0.99
		C7,147.9,5.74,147.73,4.78,146.03L4.78,146.03z"/>
	<path fill="#454444" d="M10.75,153.16c0,0,0.87,0,1.59-0.15c0.19-0.04,0.65-0.14,1.27-0.28c2.59-0.57,7.98-1.75,8.75-1.7
		c0.52,0.03,2.02,0.5,3.37,1.02c1.17,0.45,2.28,0.97,2.64,1.34c0.4,0.4,0.68,1.16,0.85,1.93c0.18,0.88,0.23,1.87,0.12,2.37
		c-0.21,0.9-1.73,2.86-1.73,2.87l-1.38-1.06c0,0,1.3-1.69,1.42-2.2c0.06-0.28,0.01-0.96-0.13-1.62c-0.1-0.49-0.24-0.92-0.37-1.05
		c-0.18-0.18-1.06-0.56-2.04-0.94c-1.21-0.47-2.5-0.88-2.87-0.91c-0.52-0.03-5.76,1.11-8.27,1.67
		C11.2,155.05,10.83,154.42,10.75,153.16L10.75,153.16z"/>
	<path fill="#454444" d="M13.66,160.09c0,0,1.23-0.05,1.8-0.23c0.16-0.05,0.77-0.3,1.53-0.61c1.75-0.72,4.27-1.75,4.92-1.75
		c0.39,0,1.37,0.22,2.37,0.49c1.3,0.35,2.72,0.82,2.92,0.98c0.28,0.23,0.54,1.07,0.58,1.92c0.03,0.59-0.01,1.24-0.16,1.72
		c-0.15,0.47-0.33,0.95-0.57,1.39c-0.28,0.5-0.64,0.94-1.13,1.24c-0.27,0.17-0.91,0.41-1.72,0.73c-1.67,0.65-4.16,1.61-4.64,2.26
		c-1.88-2.06,1.55-2.93,4.01-3.88c0.71-0.28,1.27-0.49,1.43-0.59c0.21-0.13,0.38-0.35,0.53-0.6c0.18-0.32,0.31-0.7,0.43-1.07
		c0.09-0.27,0.1-0.7,0.08-1.11c-0.02-0.41,0.12-0.6,0.06-0.64c-0.04-0.03-1.16-0.35-2.28-0.65c-0.87-0.23-1.69-0.43-1.92-0.43
		c-0.32,0-2.65,0.95-4.27,1.62C15.33,161.8,14.61,162.18,13.66,160.09L13.66,160.09z"/>
	<path fill="#454444" d="M14.32,173.79c0.01,0,4.86,0.26,7.33-1.53c2.33-1.68,1.99-7.29,1.99-7.3l1.73-0.1
		c0,0.02,0.39,6.57-2.71,8.81C21.3,174.65,15.68,176.42,14.32,173.79L14.32,173.79z"/>
	<path fill="#454444" d="M2.64,150.79c0,0.01,0.38,2.91,0.57,3.55c0.06,0.19,0.35,0.75,0.7,1.42c0.61,1.15,1.36,2.59,1.59,3.54
		c0.17,0.73,1.01,3.03,1.87,5.13c0.66,1.61,1.31,3.07,1.65,3.52c0.59,0.79,2.22,0.71,2.23,0.71c-0.22,2.13-2.82,1.4-3.62,0.32
		c-0.43-0.58-1.15-2.17-1.86-3.9c-0.88-2.16-1.76-4.58-1.95-5.39c-0.17-0.72-0.88-2.06-1.44-3.13c-0.39-0.74-0.72-1.36-0.83-1.72
		c-0.24-0.77-0.63-3.84-0.64-3.85L2.64,150.79L2.64,150.79z"/>
	<path fill="#454444" d="M18.77,201.02c-0.02-0.02-6.4-8.44-7.12-18.83l1.73-0.12c0.69,9.88,6.76,17.88,6.78,17.91L18.77,201.02
		L18.77,201.02z"/>
	<path fill="#454444" d="M9.17,168.26c0,0.02,1.45,5.82,1.8,7.41c0.1,0.44,0.46,1.4,0.92,2.62c1.1,2.91,4.22,8.11,0.96,8.75
		c-0.53-2.72-1.72-5.86-2.58-8.13c-0.48-1.27-0.86-2.27-0.99-2.86c-0.3-1.36-1.78-7.35-1.79-7.37L9.17,168.26L9.17,168.26z"/>
	<path fill="#454444" d="M33.95,140.39c0,0.04,1.62,15.67,2.46,18.3c0.88,2.76,6.72,21.65,6.74,21.71l-1.51,0.78
		c-0.02-0.05-6.02-19.27-6.87-21.96c-0.9-2.81-2.53-18.61-2.53-18.66L33.95,140.39L33.95,140.39z"/>
	<path fill="#454444" d="M42.83,184.36c-1.11,4.27-4.62,25.34-5.6,31.22h-1.76c0.9-5.46,4.53-27.23,5.68-31.66
		c1.27-4.88,0.63-14.96,0.62-14.99C44.57,172.16,43.56,181.56,42.83,184.36L42.83,184.36z"/>
	<path fill="#454444" d="M9.53,170.09c-0.01,0.03-2.71,12.12-0.89,22.85c0.85,5.01,2.16,8.74,3.67,11.24
		c1.57,2.61,3.3,3.83,4.88,3.73c3.78-0.23,19.54,6.37,19.59,6.39l-0.53,1.28h-0.92c-3.19-1.31-15.1-6.11-18.03-5.93
		c-2.22,0.14-4.53-1.35-6.46-4.57c-1.61-2.68-3-6.61-3.89-11.86c-1.87-11.07,0.9-23.47,0.9-23.5L9.53,170.09L9.53,170.09z"/>
	<path fill="#454444" d="M24.74,170.03c0.01,0.02,1.84,7.51,1.29,13c-0.28,2.71-2.07,8.41-4,13.53c-2.05,5.44-4.39,10.32-5.45,10.65
		c-1.05,0.33-2,0.18-2.86-0.39c-0.77-0.51-1.44-1.36-2.02-2.5c-0.64-1.25-2.23-6.3-3.33-11.4c-0.74-3.45-1.28-6.96-1.16-9.42
		c0.27-5.94,1.19-11.47,1.19-11.48l1.71,0.28c0,0.02-0.9,5.45-1.17,11.28c-0.11,2.28,0.41,5.64,1.13,8.97
		c1.07,4.98,2.58,9.82,3.17,10.98c0.45,0.88,0.92,1.5,1.43,1.84c0.41,0.27,0.88,0.34,1.4,0.18c0.53-0.17,2.45-4.59,4.34-9.6
		c1.89-5.02,3.64-10.54,3.9-13.09c0.53-5.2-1.24-12.4-1.25-12.42L24.74,170.03L24.74,170.03z"/>
	<path fill="#454444" d="M86.95,154.37c0.09,0.01,31.88,3.65,44.88,3.65C128.24,161.84,86.68,157.69,86.95,154.37L86.95,154.37z"/>
	<path fill-rule="evenodd" clip-rule="evenodd" fill="#4B4B1E" d="M82.26,44.82c1.16,0,2.1,0.95,2.1,2.11c0,1.17-0.94,2.11-2.1,2.11
		c-1.16,0-2.1-0.95-2.1-2.11C80.15,45.77,81.09,44.82,82.26,44.82L82.26,44.82z"/>
	<path fill-rule="evenodd" clip-rule="evenodd" fill="#4B4B1E" d="M59,50.07c1.16,0,2.1,0.95,2.1,2.11c0,1.17-0.94,2.11-2.1,2.11
		c-1.16,0-2.1-0.95-2.1-2.11C56.9,51.02,57.84,50.07,59,50.07L59,50.07z"/>
	<path fill-rule="evenodd" clip-rule="evenodd" fill="#454444" d="M77.2,49.3l-2.24,0.6c0,0-0.11-0.64-0.03-0.86
		c0.08-0.22,0.95-0.91,0.95-0.91s2.08-2.73,2.47-2.89c0.39-0.16,4.55-0.59,5.43-0.45c0.88,0.14,2.77,1.62,3,1.84
		c0.23,0.22,0.61,0.4,0.61,0.4l-0.62,0.64c0,0-0.53,0.55-0.71,0.7c-0.18,0.15-0.95,0.37-0.95,0.37s0.53-1.05,0.49-1.43
		c-0.04-0.38-2.02-1.44-2.74-1.53c-0.72-0.08-3.33-0.08-4.4,0.8S76.86,48.38,77.2,49.3L77.2,49.3z"/>
	<path fill-rule="evenodd" clip-rule="evenodd" fill="#8D8C29" d="M83.61,46.92l-0.73-0.18c0,0-0.34,0.62-0.98,0.62
		s-1.02-0.59-1.02-0.59l-0.26,0.29c0,0,0.69,0.85,1.68,0.77l0.43,0.15C82.75,47.99,83.19,47.77,83.61,46.92L83.61,46.92z"/>
	<path fill-rule="evenodd" clip-rule="evenodd" fill="#FFFFFF" d="M83.35,46.26c-0.47-0.04-0.87,0.12-0.89,0.35
		c-0.02,0.23,0.35,0.45,0.82,0.49c0.47,0.04,0.87-0.12,0.89-0.35C84.19,46.52,83.82,46.3,83.35,46.26L83.35,46.26z"/>
	<path fill-rule="evenodd" clip-rule="evenodd" fill="#8D8C29" d="M60.22,51.98l-0.73-0.18c0,0-0.34,0.62-0.98,0.62
		c-0.64,0-1.02-0.59-1.02-0.59l-0.26,0.29c0,0,0.69,0.85,1.68,0.77l0.43,0.15C59.35,53.05,59.79,52.83,60.22,51.98L60.22,51.98z"/>
	<path fill-rule="evenodd" clip-rule="evenodd" fill="#FFFFFF" d="M59.95,51.32c-0.47-0.04-0.87,0.12-0.89,0.35
		c-0.02,0.23,0.35,0.45,0.82,0.49c0.47,0.04,0.87-0.12,0.89-0.35C60.79,51.58,60.42,51.36,59.95,51.32L59.95,51.32z"/>
	<polygon fill="#454444" points="9.28,133.87 10.04,136.52 8.59,136.94 7.83,134.29 9.28,133.87 	"/>
	<g>
		<g>
			
				<text transform="matrix(1.001 0.0734 -0.0731 0.9973 89.9462 143.3311)" fill="#454444" font-family="'NewakeRegular'" font-size="8.7283px">Near</text>
			
				<text transform="matrix(1.001 0.0734 -0.0731 0.9973 89.45 150.101)" fill="#454444" font-family="'NewakeRegular'" font-size="8.7283px">Laboratory</text>
			
				<text transform="matrix(0.9973 0.0731 -0.0731 0.9973 109.6553 144.7699)" fill="#454444" font-family="'NewakeRegular'" font-size="8.7283px">Future</text>
		</g>
	</g>
	<path fill="#454444" d="M200.13,179.77"/>
	<path fill="none" stroke="#454444" stroke-width="1.7226" stroke-miterlimit="10" d="M200.86,179.19c1.85,3.01,3.18,4.15,4.09,6.08
		c2.09,4.4,1.49,11.25,0.77,16.63s-1.82,8.54-4.75,13.1"/>
	
		<line fill="none" stroke="#454444" stroke-width="1.7226" stroke-miterlimit="10" x1="158.36" y1="210.82" x2="164.61" y2="202.17"/>
</g>
</svg>
