<?xml version="1.0" encoding="UTF-8"?>
<svg id="Layer_3" data-name="Layer 3" xmlns="http://www.w3.org/2000/svg" viewBox="0 0 419.02 421.03">
  <defs>
    <style>
      .cls-1 {
        fill: #c5f20c;
      }

      .cls-1, .cls-2, .cls-3 {
        stroke-width: 0px;
      }

      .cls-2 {
        fill: #939393;
      }

      .cls-3 {
        fill: #c1c1c1;
      }
    </style>
  </defs>
  <rect class="cls-3" x="0" width="419.02" height="421.03" rx="43.17" ry="43.17"/>
  <g>
    <path class="cls-1" d="M212.03,52.97c1.25,0,1.88.59,1.88,1.78v146.23c0,1.18-.63,1.78-1.88,1.78h-32.16c-.73,0-1.25-.24-1.55-.73l-53.7-71.23c-.58-.7-1.32-.92-2.21-.68-.89.24-1.32.82-1.32,1.72l.77,69.04c0,1.25-.63,1.88-1.88,1.88h-34.8c-1.33,0-1.99-.59-1.99-1.78V54.75c0-1.18.66-1.78,1.99-1.78h31.7c.74,0,1.29.28,1.66.84l53.92,76.66c.51.7,1.23.92,2.15.68.92-.24,1.38-.82,1.38-1.72l-.77-74.68c0-1.18.63-1.78,1.88-1.78h34.91Z"/>
    <path class="cls-2" d="M333.8,336.01c.55,0,1.04.17,1.47.54.43.37.61.82.53,1.36l-2.73,28.66c-.16.99-.83,1.49-2,1.49h-88.53c-1.41,0-2.11-.56-2.11-1.69l.09-136.35c0-1.11.7-1.69,2.11-1.69h38.75c1.33,0,2,.57,2,1.69v104.28c0,1.13.7,1.7,2.11,1.7h48.3Z"/>
    <path class="cls-1" d="M332.43,54.78l3.03,30.67c.08.55-.1,1.03-.53,1.46-.43.41-.95.62-1.57.62h-48.2c-.62,0-1.13.21-1.51.58-.39.38-.58.82-.58,1.3v18.56c0,.5.19.93.58,1.3.38.39.89.58,1.51.58h35.55c.61,0,1.12.19,1.51.57.38.39.58.82.58,1.3l-.35,30.67c0,1.18-.7,1.78-2.09,1.78h-35.2c-.62,0-1.13.17-1.51.51-.39.34-.58.81-.58,1.35v54.76c0,.48-.2.93-.58,1.3-.39.38-.9.57-1.51.57h-38.22c-.55,0-1.03-.19-1.45-.57-.43-.38-.64-.82-.64-1.3V54.99c0-.48.21-.93.64-1.3.42-.38.9-.57,1.45-.57h87.58c1.24,0,1.94.55,2.09,1.66Z"/>
  </g>
</svg>